@startuml
class "std::string" as C_0000159384585232022465
class C_0000159384585232022465 {
__
}
class "std::function<void()>" as C_0001660784356362272037
class C_0001660784356362272037 {
__
}
class "std::vector<std::function<void()>>" as C_0001301893113309798603
class C_0001301893113309798603 {
__
}
class "std::unordered_set<char>" as C_0001321469934345818324
class C_0001321469934345818324 {
__
}
class "General" as C_0000953681277072310763
class C_0000953681277072310763 {
+General() : void
..
{static} +getUserInput() : std::string
{static} +printWithTypingEffect(const std::string & message, unsigned int milliseconds_per_char = 50) : void
__
}
class "Ship" as C_0001816207179164377052
class C_0001816207179164377052 {
+Ship(Ship::Type type) : void
..
{static} +damageModifier(Ship::Type type) : float
+earnMoney(int amount) : void
{static} +escapeProbability(Ship::Type type) : float
+getFuel() const : int
+getHealth() const : int
+getMoney() const : int
+getType() const : Ship::Type
+refuel(int amount) : void
+takeDamage(int amount) : void
__
-fuel : int
-health : int
-money : int
-type : Ship::Type
}
enum "Ship::Type" as C_0001156001904202383663
enum C_0001156001904202383663 {
Fast
Strong
Normal
}
class "GameEngine" as C_0001313198784130142766
class C_0001313198784130142766 {
+GameEngine(Ship::Type shipType) : void
..
-calculateFinalScore() const : void
+displayStatus() const : void
+executeEvent(GameEngine::Event event) : void
-handleAbandonedPlanet() : void
-handleAsteroidBelt() : void
-handleSpacePirates() : void
+startGame() : void
__
-eventCount : int
-eventHandlers : std::vector<std::function<void ()>>
-failedActions : std::unordered_set<char>
-playerShip : Ship
}
enum "GameEngine::Event" as C_0001890209837654115577
enum C_0001890209837654115577 {
AsteroidBelt
AbandonedPlanet
SpacePirates
}
C_0001301893113309798603 ..> C_0001660784356362272037
C_0000953681277072310763 ..> C_0000159384585232022465
C_0001156001904202383663 --+ C_0001816207179164377052
C_0001313198784130142766 o-- C_0001816207179164377052 : -playerShip
C_0001313198784130142766 o-- C_0001301893113309798603 : -eventHandlers
C_0001313198784130142766 o-- C_0001321469934345818324 : -failedActions
C_0001890209837654115577 --+ C_0001313198784130142766

'Generated with clang-uml, version 0.5.0
'LLVM version Ubuntu clang version 15.0.7
@enduml
